<svg width="40" height="40" viewBox="0 0 40 40" fill="none" xmlns="http://www.w3.org/2000/svg">
<path fill-rule="evenodd" clip-rule="evenodd" d="M37.5 5C37.5 4.33696 37.2366 3.70107 36.7678 3.23223C36.2989 2.76339 35.663 2.5 35 2.5H5C4.33696 2.5 3.70107 2.76339 3.23223 3.23223C2.76339 3.70107 2.5 4.33696 2.5 5V35C2.5 35.663 2.76339 36.2989 3.23223 36.7678C3.70107 37.2366 4.33696 37.5 5 37.5H35C35.663 37.5 36.2989 37.2366 36.7678 36.7678C37.2366 36.2989 37.5 35.663 37.5 35V5ZM0 5C0 3.67392 0.526784 2.40215 1.46447 1.46447C2.40215 0.526784 3.67392 0 5 0L35 0C36.3261 0 37.5979 0.526784 38.5355 1.46447C39.4732 2.40215 40 3.67392 40 5V35C40 36.3261 39.4732 37.5979 38.5355 38.5355C37.5979 39.4732 36.3261 40 35 40H5C3.67392 40 2.40215 39.4732 1.46447 38.5355C0.526784 37.5979 0 36.3261 0 35V5ZM21.25 11.25C21.25 10.9185 21.1183 10.6005 20.8839 10.3661C20.6495 10.1317 20.3315 10 20 10C19.6685 10 19.3505 10.1317 19.1161 10.3661C18.8817 10.6005 18.75 10.9185 18.75 11.25V25.7325L13.385 20.365C13.1503 20.1303 12.8319 19.9984 12.5 19.9984C12.1681 19.9984 11.8497 20.1303 11.615 20.365C11.3803 20.5997 11.2484 20.9181 11.2484 21.25C11.2484 21.5819 11.3803 21.9003 11.615 22.135L19.115 29.635C19.2311 29.7514 19.3691 29.8438 19.5209 29.9068C19.6728 29.9698 19.8356 30.0022 20 30.0022C20.1644 30.0022 20.3272 29.9698 20.4791 29.9068C20.6309 29.8438 20.7689 29.7514 20.885 29.635L28.385 22.135C28.6197 21.9003 28.7516 21.5819 28.7516 21.25C28.7516 20.9181 28.6197 20.5997 28.385 20.365C28.1503 20.1303 27.8319 19.9984 27.5 19.9984C27.1681 19.9984 26.8497 20.1303 26.615 20.365L21.25 25.7325V11.25Z" fill="black"/>
</svg>
