<svg width="38" height="38" viewBox="0 0 38 38" fill="none" xmlns="http://www.w3.org/2000/svg">
<path d="M3.375 37.75C3.375 37.75 0.25 37.75 0.25 34.625C0.25 31.5 3.375 22.125 19 22.125C34.625 22.125 37.75 31.5 37.75 34.625C37.75 37.75 34.625 37.75 34.625 37.75H3.375ZM19 19C21.4864 19 23.871 18.0123 25.6291 16.2541C27.3873 14.496 28.375 12.1114 28.375 9.625C28.375 7.1386 27.3873 4.75403 25.6291 2.99587C23.871 1.23772 21.4864 0.25 19 0.25C16.5136 0.25 14.129 1.23772 12.3709 2.99587C10.6127 4.75403 9.625 7.1386 9.625 9.625C9.625 12.1114 10.6127 14.496 12.3709 16.2541C14.129 18.0123 16.5136 19 19 19Z" fill="black"/>
</svg>
